<svg width="154" height="300" viewBox="0 0 154 300" fill="none" xmlns="http://www.w3.org/2000/svg">
<path d="M49.1334 165.147C47.1339 163.163 45.5468 160.804 44.4637 158.204C43.3807 155.605 42.8231 152.816 42.8231 150C42.8231 147.184 43.3807 144.395 44.4637 141.796C45.5468 139.196 47.1339 136.836 49.1334 134.853L147.053 37.1466C149.053 35.1634 150.64 32.8039 151.723 30.2042C152.806 27.6045 153.364 24.8162 153.364 21.9999C153.364 19.1836 152.806 16.3953 151.723 13.7956C150.64 11.1959 149.053 8.83644 147.053 6.85323C143.056 2.87988 137.649 0.649658 132.013 0.649658C126.377 0.649658 120.97 2.87988 116.973 6.85323L19.0534 104.773C7.06832 116.773 0.336426 133.04 0.336426 150C0.336426 166.96 7.06832 183.227 19.0534 195.227L116.973 293.147C120.947 297.088 126.31 299.31 131.907 299.333C134.714 299.349 137.498 298.811 140.097 297.75C142.696 296.688 145.06 295.124 147.053 293.147C149.053 291.163 150.64 288.804 151.723 286.204C152.806 283.605 153.364 280.816 153.364 278C153.364 275.184 152.806 272.395 151.723 269.796C150.64 267.196 149.053 264.836 147.053 262.853L49.1334 165.147Z" fill="black"/>
</svg>
