<svg width="223" height="223" viewBox="0 0 223 223" fill="none" xmlns="http://www.w3.org/2000/svg">
<g clip-path="url(#clip0_637_43808)">
<path d="M111.5 111.5C122.526 111.5 133.305 108.23 142.473 102.104C151.641 95.9786 158.787 87.2716 163.006 77.0846C167.226 66.8976 168.33 55.6882 166.179 44.8737C164.028 34.0593 158.718 24.1256 150.921 16.3288C143.124 8.53204 133.191 3.22237 122.376 1.07125C111.562 -1.07988 100.352 0.0241557 90.1654 4.24374C79.9784 8.46333 71.2715 15.6089 65.1456 24.777C59.0197 33.945 55.75 44.7237 55.75 55.75C55.7648 70.5313 61.6431 84.703 72.0951 95.1549C82.5471 105.607 96.7187 111.485 111.5 111.5ZM111.5 18.5834C118.851 18.5834 126.037 20.7631 132.149 24.8471C138.261 28.931 143.024 34.7356 145.838 41.527C148.651 48.3183 149.387 55.7913 147.953 63.0009C146.518 70.2105 142.979 76.833 137.781 82.0308C132.583 87.2287 125.96 90.7685 118.751 92.2025C111.541 93.6366 104.068 92.9006 97.2769 90.0875C90.4856 87.2745 84.681 82.5107 80.597 76.3987C76.5131 70.2867 74.3333 63.1009 74.3333 55.75C74.3333 45.8928 78.2491 36.4393 85.2192 29.4692C92.1893 22.4991 101.643 18.5834 111.5 18.5834V18.5834Z" fill="black"/>
<path d="M111.5 130C83.7943 130.025 57.2322 138.851 37.6413 154.542C18.0504 170.234 7.03073 191.509 7 213.7C7 216.167 8.22331 218.532 10.4008 220.276C12.5783 222.02 15.5317 223 18.6111 223C21.6906 223 24.6439 222.02 26.8214 220.276C28.9989 218.532 30.2222 216.167 30.2222 213.7C30.2222 196.434 38.7854 179.876 54.0279 167.667C69.2705 155.459 89.9438 148.6 111.5 148.6C133.056 148.6 153.73 155.459 168.972 167.667C184.215 179.876 192.778 196.434 192.778 213.7C192.778 216.167 194.001 218.532 196.179 220.276C198.356 222.02 201.309 223 204.389 223C207.468 223 210.422 222.02 212.599 220.276C214.777 218.532 216 216.167 216 213.7C215.969 191.509 204.95 170.234 185.359 154.542C165.768 138.851 139.206 130.025 111.5 130V130Z" fill="black"/>
</g>
<defs>
<clipPath id="clip0_637_43808">
<rect width="223" height="223" fill="white"/>
</clipPath>
</defs>
</svg>
